<?xml version="1.0" standalone="no"?>
<!DOCTYPE svg PUBLIC "-//W3C//DTD SVG 20010904//EN"
 "http://www.w3.org/TR/2001/REC-SVG-20010904/DTD/svg10.dtd">
<svg version="1.0" xmlns="http://www.w3.org/2000/svg"
 width="1280.000000pt" height="666.000000pt" viewBox="0 0 1280.000000 666.000000"
 preserveAspectRatio="xMidYMid meet">
<g transform="translate(0.000000,666.000000) scale(0.100000,-0.100000)"
fill="#000000" stroke="none">
<path d="M6170 6650 c-25 -4 -90 -13 -145 -20 -238 -28 -514 -109 -730 -214
-346 -169 -622 -411 -825 -721 -109 -167 -204 -410 -237 -605 -15 -84 -22
-104 -38 -111 -11 -5 -85 -20 -165 -34 -1664 -295 -3048 -989 -3775 -1892 -88
-109 -235 -322 -235 -339 0 -16 86 -92 173 -153 45 -31 120 -85 167 -118 875
-623 2212 -1133 3620 -1383 174 -31 175 -31 205 -66 17 -20 69 -82 116 -138
370 -438 958 -744 1579 -821 69 -8 159 -20 200 -25 96 -13 234 -13 330 0 41 5
131 17 200 25 233 29 491 99 709 192 353 150 692 402 914 679 23 29 48 55 55
58 7 3 77 15 155 27 1692 247 3180 801 4192 1559 72 54 137 105 144 113 11 14
0 35 -71 144 -692 1054 -2167 1834 -4092 2163 -92 16 -170 30 -172 32 -2 2
-12 49 -23 104 -153 783 -869 1404 -1751 1518 -69 9 -155 21 -192 26 -77 11
-242 11 -308 0z"/>
</g>
</svg>
